<svg xmlns="http://www.w3.org/2000/svg" version="1.1" xmlns:xlink="http://www.w3.org/1999/xlink" xmlns:svgjs="http://svgjs.dev/svgjs" width="1440" height="1200" preserveAspectRatio="none" viewBox="0 0 1440 1200"><g mask="url(&quot;#SvgjsMask3346&quot;)" fill="none"><rect width="1440" height="1200" x="0" y="0" fill="url(&quot;#SvgjsLinearGradient3347&quot;)"></rect><path d="M1440 0L1378.13 0L1440 71.22z" fill="rgba(255, 255, 255, .1)"></path><path d="M1378.13 0L1440 71.22L1440 436.1L1131.47 0z" fill="rgba(255, 255, 255, .075)"></path><path d="M1131.47 0L1440 436.1L1440 662.9100000000001L780.69 0z" fill="rgba(255, 255, 255, .05)"></path><path d="M780.69 0L1440 662.9100000000001L1440 711.6000000000001L366.21000000000004 0z" fill="rgba(255, 255, 255, .025)"></path><path d="M0 1200L134.01 1200L0 766.4200000000001z" fill="rgba(0, 0, 0, .1)"></path><path d="M0 766.4200000000001L134.01 1200L208.33999999999997 1200L0 554.74z" fill="rgba(0, 0, 0, .075)"></path><path d="M0 554.74L208.33999999999997 1200L367.17999999999995 1200L0 362.65z" fill="rgba(0, 0, 0, .05)"></path><path d="M0 362.65L367.17999999999995 1200L527.26 1200L0 265.05999999999995z" fill="rgba(0, 0, 0, .025)"></path></g><defs><mask id="SvgjsMask3346"><rect width="1440" height="1200" fill="#ffffff"></rect></mask><linearGradient x1="4.17%" y1="-5%" x2="95.83%" y2="105%" gradientUnits="userSpaceOnUse" id="SvgjsLinearGradient3347"><stop stop-color="rgba(0, 7, 29, 1)" offset="1"></stop><stop stop-color="#0e2a47" offset="1"></stop></linearGradient></defs></svg>