<!DOCTYPE svg PUBLIC "-//W3C//DTD SVG 1.1//EN" "http://www.w3.org/Graphics/SVG/1.1/DTD/svg11.dtd">
<!-- Uploaded to: SVG Repo, www.svgrepo.com, Transformed by: SVG Repo Mixer Tools -->
<svg version="1.1" id="Uploaded to svgrepo.com" xmlns="http://www.w3.org/2000/svg" xmlns:xlink="http://www.w3.org/1999/xlink" width="256px" height="256px" viewBox="0 0 32 32" xml:space="preserve" fill="#000000">
<g id="SVGRepo_bgCarrier" stroke-width="0"/>
<g id="SVGRepo_tracerCarrier" stroke-linecap="round" stroke-linejoin="round"/>
<g id="SVGRepo_iconCarrier"> <style type="text/css"> .bentblocks_een{fill:#31397c;} </style> <path class="bentblocks_een" d="M16,4C9.373,4,4,9.373,4,16c0,6.627,5.373,12,12,12s12-5.373,12-12C28,9.373,22.627,4,16,4z M16,26 c-5.514,0-10-4.486-10-10c0-5.514,4.486-10,10-10s10,4.486,10,10C26,21.514,21.514,26,16,26z M23.429,12.172l-9.777,9.777 l-5.08-5.08l1.414-1.414l3.666,3.666l8.363-8.363L23.429,12.172z"/> </g>
</svg>